<mxfile host="app.diagrams.net" modified="2023-09-21T11:03:46.041Z" agent="Mozilla/5.0 (Macintosh; Intel Mac OS X 10_15_7) AppleWebKit/537.36 (KHTML, like Gecko) Chrome/116.0.0.0 Safari/537.36" version="21.6.9" etag="dxIir4NT9G6EXtSW44S4" type="github">
  <diagram name="페이지-1" id="3TmJMtGpCK16ttCL-IU8">
    <mxGraphModel>
      <root>
        <mxCell id="0" />
        <mxCell id="1" parent="0" />
      </root>
    </mxGraphModel>
  </diagram>
</mxfile>
